<?xml version="1.0" encoding="utf-8"?>
<!-- Uploaded to: SVG Repo, www.svgrepo.com, Generator: SVG Repo Mixer Tools -->
<svg width="800px" height="800px" viewBox="0 0 87.4 87.7" xmlns="http://www.w3.org/2000/svg">
<g fill="#00adef">
<path d="M40 6.91C55.75 4.5 71.53 2.23 87.31.04c.01 13.83 0 27.65.01 41.48-15.77.06-31.54.3-47.32.35-.01-11.66-.01-23.31 0-34.96zM0 12.49c11.86-1.83 23.771-3.41 35.681-4.9.01 11.47.01 22.93.02 34.4-11.9-.01-23.801.17-35.701.14V12.49zM0 45.74c11.891-.04 23.78.15 35.67.13 0 11.5.03 23 .011 34.5C23.801 78.609 11.9 77.07 0 75.46V45.74zM39.93 46.2h47.38c.02 13.79 0 27.58 0 41.38-15.75-2.36-31.53-4.55-47.31-6.689-.02-11.561-.05-23.121-.07-34.691z"/>
</g>
</svg>
